<svg width="16" height="17" viewBox="0 0 16 17" fill="none" xmlns="http://www.w3.org/2000/svg">
<g clip-path="url(#clip0_2251_236)">
<path d="M12 5.01824C12 4.84143 11.9298 4.67186 11.8047 4.54683C11.6797 4.42181 11.5101 4.35157 11.3333 4.35157L5.99999 4.31824C5.82318 4.31824 5.65361 4.38848 5.52859 4.5135C5.40356 4.63852 5.33332 4.80809 5.33332 4.9849C5.33332 5.16171 5.40356 5.33128 5.52859 5.45631C5.65361 5.58133 5.82318 5.65157 5.99999 5.65157H9.70666L4.19332 11.1782C4.13084 11.2402 4.08124 11.3139 4.0474 11.3952C4.01355 11.4764 3.99612 11.5636 3.99612 11.6516C3.99612 11.7396 4.01355 11.8267 4.0474 11.908C4.08124 11.9892 4.13084 12.0629 4.19332 12.1249C4.2553 12.1874 4.32903 12.237 4.41027 12.2708C4.49151 12.3047 4.57865 12.3221 4.66666 12.3221C4.75466 12.3221 4.8418 12.3047 4.92304 12.2708C5.00428 12.237 5.07801 12.1874 5.13999 12.1249L10.6667 6.59824V10.3182C10.6667 10.495 10.7369 10.6646 10.8619 10.7896C10.9869 10.9147 11.1565 10.9849 11.3333 10.9849C11.5101 10.9849 11.6797 10.9147 11.8047 10.7896C11.9298 10.6646 12 10.495 12 10.3182V5.01824Z" fill="#5449D6"/>
</g>
<defs>
<clipPath id="clip0_2251_236">
<rect width="16" height="16" fill="white" transform="translate(0 0.318237)"/>
</clipPath>
</defs>
</svg>
